<?xml version="1.0" encoding="UTF-8"?>
<svg width="24px" height="24px" viewBox="0 0 24 24" version="1.1" xmlns="http://www.w3.org/2000/svg" xmlns:xlink="http://www.w3.org/1999/xlink">
    <title>24 / logos / facebook</title>
    <g id="24-/-logos-/-facebook" stroke="none" stroke-width="1" fill="none" fill-rule="evenodd">
        <rect id="evericons.com" x="0" y="0" width="24" height="24"></rect>
        <path d="M12,1 C18.0751322,1 23,5.92486775 23,12 C23,18.0751322 18.0751322,23 12,23 C5.92486775,23 1,18.0751322 1,12 C1,5.92486775 5.92486775,1 12,1 Z M12,3 C7.02943725,3 3,7.02943725 3,12 C3,16.9705627 7.02943725,21 12,21 C16.9705627,21 21,16.9705627 21,12 C21,7.02943725 16.9705627,3 12,3 Z M15,7 L15,9 L14,9 C13.4477153,9 13,9.44771525 13,10 L13,11.0043945 L15,11 L15,13 L13,13.0043945 L13,18 L11,18 L11,13.0043945 L9,13 L9,11 L11,11.0043945 L11,10 C11,8.34314575 12.3431458,7 14,7 L15,7 Z" id="icon" fill="#000000"></path>
    </g>
</svg>