<?xml version="1.0" encoding="UTF-8"?>
<svg width="24px" height="24px" viewBox="0 0 24 24" version="1.1" xmlns="http://www.w3.org/2000/svg" xmlns:xlink="http://www.w3.org/1999/xlink">
    <title>24 / logos / linkedin</title>
    <g id="24-/-logos-/-linkedin" stroke="none" stroke-width="1" fill="none" fill-rule="evenodd">
        <rect id="evericons.com" x="0" y="0" width="24" height="24"></rect>
        <path d="M20,2 C21.1045695,2 22,2.8954305 22,4 L22,20 C22,21.1045695 21.1045695,22 20,22 L4,22 C2.8954305,22 2,21.1045695 2,20 L2,4 C2,2.8954305 2.8954305,2 4,2 L20,2 Z M20,4 L4,4 L4,20 L20,20 L20,4 Z M12,9 L12.0001827,9.25395911 C12.4629788,9.08564839 12.9747185,9 13.5,9 C15.3708601,9 16.8918072,10.2483726 16.9944756,11.8293757 L17,12 L17,17 L15,17 L15,12 C15,11.5180085 14.3956568,11 13.5,11 C12.6866203,11 12.0799682,11.3473849 12.0073139,11.8891093 L12,12 L12,17 L10,17 L10,9 L12,9 Z M9,9 L9,17 L7,17 L7,9 L9,9 Z M8,6 C8.55228475,6 9,6.44771525 9,7 C9,7.55228475 8.55228475,8 8,8 C7.44771525,8 7,7.55228475 7,7 C7,6.44771525 7.44771525,6 8,6 Z" id="icon" fill="#000000"></path>
    </g>
</svg>