<?xml version="1.0" encoding="UTF-8"?>
<svg width="24px" height="24px" viewBox="0 0 24 24" version="1.1" xmlns="http://www.w3.org/2000/svg" xmlns:xlink="http://www.w3.org/1999/xlink">
    <title>24 / basic / logout-circle</title>
    <g id="24-/-basic-/-logout-circle" stroke="none" stroke-width="1" fill="none" fill-rule="evenodd">
        <rect id="evericons.com" x="0" y="0" width="24" height="24"></rect>
        <path d="M12,2 C13.5802619,2 15.1100398,2.36760414 16.4920841,3.06354295 L15.5925767,4.84984818 C14.488,4.29363027 13.266063,4 12,4 C7.581722,4 4,7.581722 4,12 C4,16.418278 7.581722,20 12,20 C13.2669938,20 14.4897931,19.705937 15.5949937,19.1489342 L16.4951079,20.9349337 C15.1122849,21.6318536 13.5814255,22 12,22 C6.4771525,22 2,17.5228475 2,12 C2,6.4771525 6.4771525,2 12,2 Z M18.7071068,7.29289322 L23.4142136,12 L18.7071068,16.7071068 L17.2928932,15.2928932 L19.5857864,13 L10,13 L10,11 L19.5857864,11 L17.2928932,8.70710678 L18.7071068,7.29289322 Z" id="icon" fill="#000000"></path>
    </g>
</svg>