<?xml version="1.0" encoding="UTF-8"?>
<svg width="24px" height="24px" viewBox="0 0 24 24" version="1.1" xmlns="http://www.w3.org/2000/svg" xmlns:xlink="http://www.w3.org/1999/xlink">
    <title>24 / logos / medium</title>
    <g id="24-/-logos-/-medium" stroke="none" stroke-width="1" fill="none" fill-rule="evenodd">
        <rect id="evericons.com" x="0" y="0" width="24" height="24"></rect>
        <path d="M8.29460825,3 L12.89232,11.0459956 L16.0644701,3.64431215 L16.2792408,3 L22.618034,3 L21,6.23606798 L21,16.763932 L22.618034,20 L13.381966,20 L15,16.763932 L15,11.2052577 L11.1280881,20.2397187 L6,11.2655644 L6,16.9347524 L8.61803399,20 L1.38196601,20 L4,16.9347524 L4,7.76556444 L1.27682032,3 L8.29460825,3 Z M19.381966,5 L17.7207592,5 L17,7.16227766 L17,17.236068 L16.618034,18 L19.381966,18 L19,17.236068 L19,5.76393202 L19.381966,5 Z M7.13396318,5 L4.72317968,5 L10.8719119,15.7602813 L11.9051048,13.3494978 L7.13396318,5 Z" id="icon" fill="#000000"></path>
    </g>
</svg>