<?xml version="1.0" encoding="UTF-8"?>
<svg width="24px" height="24px" viewBox="0 0 24 24" version="1.1" xmlns="http://www.w3.org/2000/svg" xmlns:xlink="http://www.w3.org/1999/xlink">
    <title>24 / logos / telegram</title>
    <g id="24-/-logos-/-telegram" stroke="none" stroke-width="1" fill="none" fill-rule="evenodd">
        <rect id="evericons.com" x="0" y="0" width="24" height="24"></rect>
        <path d="M21.9053935,4.81895394 C21.968363,5.01835728 21.9731908,5.2315783 21.919311,5.43362736 L18.0057064,20.1096448 C17.8491729,20.6966453 17.2464195,21.0456078 16.659419,20.8890743 C16.512169,20.8498076 16.3746845,20.7803724 16.2556834,20.6851716 L12.074216,17.3399976 L9.83923089,19.5749827 C9.40965417,20.0045594 8.71317269,20.0045594 8.28359597,19.5749827 C8.13003537,19.4214221 8.02536474,19.2258432 7.98277469,19.012893 L7.11533655,14.6757023 L1.77366185,12.0048649 C1.2302855,11.7331767 1.01003872,11.0724364 1.28172689,10.52906 C1.41490389,10.262706 1.65038222,10.0617288 1.9343523,9.97205407 L20.5252081,4.10125751 C21.1045222,3.91831622 21.7224522,4.23963986 21.9053935,4.81895394 Z M19.5645258,6.50198441 L4.65596804,11.20995 L8.04535584,12.9039036 L15.6180078,9.87576391 L12.2533558,14.9219036 L16.4284794,18.2621587 L19.5645258,6.50198441 Z M10.3819922,14.1242361 L9.14335584,14.6189036 L9.40835584,15.9459036 L10.1055728,14.5527864 L10.1679497,14.4452998 L10.3819922,14.1242361 Z" id="icon" fill="#000000"></path>
    </g>
</svg>