<?xml version="1.0" encoding="UTF-8"?>
<svg width="24px" height="24px" viewBox="0 0 24 24" version="1.1" xmlns="http://www.w3.org/2000/svg" xmlns:xlink="http://www.w3.org/1999/xlink">
    <title>24 / basic / thumbs-up</title>
    <g id="24-/-basic-/-thumbs-up" stroke="none" stroke-width="1" fill="none" fill-rule="evenodd">
        <rect id="evericons.com" x="0" y="0" width="24" height="24"></rect>
        <path d="M13,1.99910445 C13.6147967,1.99910445 14.1422801,2.04513312 14.748281,2.22159137 C16.091867,2.61282321 17,3.52709845 17,4.99910445 C17,5.51921677 16.9079007,6.07373891 16.7382242,6.68923415 C16.6259612,7.09646424 16.4872151,7.50766133 16.2970775,8.01801005 C16.2391583,8.17347129 16.007193,8.78168345 15.9547911,8.92337824 L15.9269768,8.99910445 L15.9269768,8.99910445 L19,8.99910445 C20.8695981,8.99910445 22,10.316625 22,11.9991044 C22,17.9426745 20.7551411,21.9991044 18,21.9991044 L11.0344006,21.9985135 C10.3408482,22.0111947 9.50544052,21.9186578 8.66312366,21.6172857 C8.29462039,21.4854391 7.95563707,21.3213574 7.65188662,21.1247204 C7.29343384,21.6534226 6.68719067,22 6,22 L4,22 C2.8954305,22 2,21.1045695 2,20 L2,11 C2,9.8954305 2.8954305,9 4,9 L6,9 C6.19830237,9 6.38986405,9.02886035 6.57071391,9.08260993 C7.64176978,7.5210365 11.2551125,3.57494327 12.2202699,2.37298955 L12.5204954,1.99910445 L13,1.99910445 Z M13.4599624,4.01423587 C11.914268,5.86195611 8.40663864,9.70054105 8.14171093,10.3190878 C8.04595153,10.5426645 8.00140139,10.7522598 8,10.9878662 L8,18.0241052 L8.00602058,18.1744601 C8.0621864,18.9692804 8.51096058,19.4386839 9.33687634,19.7341879 C9.91062406,19.9394688 10.5253746,20.0075638 10.963066,19.9997143 L18,19.9991054 C19.015127,19.9991054 20,16.7898506 20,11.9991054 C20,11.3589955 19.6912225,10.9991054 19,10.9991054 L15,10.9991054 C13.8054549,10.9991054 13.5555377,10.0754586 13.8046536,9.07541689 C13.8632547,8.84017106 13.9489218,8.5812741 14.0789589,8.22965366 C14.1358033,8.07594642 14.3689242,7.46470447 14.4229225,7.31976744 C14.5944107,6.85947528 14.7161494,6.4986824 14.8101464,6.1577119 C14.9359344,5.70142019 15,5.31568707 15,4.99910538 C15,4.54813166 14.7621788,4.30870189 14.1891338,4.1418399 C13.9483736,4.07173418 13.7113931,4.0330943 13.4599624,4.01423587 Z M6,11 L4,11 L4,20 L6,20 L6,11 Z" id="icon" fill="#000000"></path>
    </g>
</svg>