<?xml version="1.0" encoding="UTF-8"?>
<svg width="24px" height="24px" viewBox="0 0 24 24" version="1.1" xmlns="http://www.w3.org/2000/svg" xmlns:xlink="http://www.w3.org/1999/xlink">
    <title>24 / basic / trash-empty</title>
    <g id="24-/-basic-/-trash-empty" stroke="none" stroke-width="1" fill="none" fill-rule="evenodd">
        <rect id="evericons.com" x="0" y="0" width="24" height="24"></rect>
        <path d="M15,1 C16.1045695,1 17,1.8954305 17,3 L17,4 L20,4 C21.1045695,4 22,4.8954305 22,6 L22,8 C22,9.1045695 21.1045695,10 20,10 L19.919,10 L19,21 C19,22.1045695 18.1045695,23 17,23 L7,23 C5.8954305,23 5,22.1045695 5.00345424,21.0830455 L4.08,10 L4,10 C2.8954305,10 2,9.1045695 2,8 L2,6 C2,4.8954305 2.8954305,4 4,4 L7,4 L7,3 C7,1.8954305 7.8954305,1 9,1 L15,1 Z M17.913,10 L6.086,10 L7,21 L17,21 L17.0034542,20.9169545 L17.913,10 Z M14.2928932,11.2928932 L15.7071068,12.7071068 L13.415,15 L15.7071068,17.2928932 L14.2928932,18.7071068 L12,16.415 L9.70710678,18.7071068 L8.29289322,17.2928932 L10.585,15 L8.29289322,12.7071068 L9.70710678,11.2928932 L12,13.585 L14.2928932,11.2928932 Z M20,6 L4,6 L4,8 L20,8 L20,6 Z M15,3 L9,3 L9,4 L15,4 L15,3 Z" id="icon" fill="#000000"></path>
    </g>
</svg>