<?xml version="1.0" encoding="UTF-8"?>
<svg width="24px" height="24px" viewBox="0 0 24 24" version="1.1" xmlns="http://www.w3.org/2000/svg" xmlns:xlink="http://www.w3.org/1999/xlink">
    <title>24 / logos / twitter</title>
    <g id="24-/-logos-/-twitter" stroke="none" stroke-width="1" fill="none" fill-rule="evenodd">
        <rect id="evericons.com" x="0" y="0" width="24" height="24"></rect>
        <path d="M4.75654233,3.34149261 L4.02287753,2.50302481 L3.26826752,3.32269306 C2.87219895,3.75290844 2.57791125,4.22243401 2.37431597,4.72961755 C2.08311318,5.45504333 2.00647116,6.03651741 2.00072724,7.02223245 L2.00158979,7.50454712 L2.00595441,7.78428679 C2.07287699,9.90417429 2.90935438,11.4542545 4.51286378,12.4489602 L4.599,12.5 L4.55444592,12.5091905 C4.38881074,12.5369135 4.20547244,12.5519104 4.00396807,12.5519104 L3.00396807,12.5519104 L3.00396807,13.5519104 L3.00831141,13.7401396 C3.08928916,15.4691569 4.29984597,16.422514 6.40985028,16.8045429 L6.6,16.836 L6.44125539,16.8968193 C5.62446777,17.1887493 4.58940749,17.4067172 3.40695739,17.5154633 L2.0125787,17.6436997 L2.58634135,18.9210145 C3.14364186,20.1616811 4.36151784,20.8715659 5.99801451,21.2286792 C6.99243514,21.4456798 7.86087855,21.5004578 9.00390874,21.5004578 L9.27442869,21.4974336 C14.7791567,21.3745903 20.5048796,17.5179549 20.5048796,11.5045471 L20.504,9.117 L20.5868879,8.9849687 C20.5932814,8.97538058 20.7300073,8.77567776 20.7700265,8.71289733 L20.8435409,8.59326379 C20.8877355,8.51750542 20.9223934,8.44822677 20.9480727,8.37633834 L20.963,8.324 L22.5346443,5.17651853 L21.1199059,5.01129757 L20.6539916,4.9512288 C20.3486254,4.90802762 20.0537484,4.85852309 19.7693784,4.80275913 L19.63,4.773 L19.5245644,4.67306827 C18.6904906,3.92016192 17.6484645,3.50454712 16.5047032,3.50454712 L16.2860334,3.50926742 C13.8985509,3.61277529 12.1122085,5.40739842 12.0091949,7.7866699 L12.004,7.983 L11.9644458,7.98028091 C9.53813403,7.76258091 7.16106423,6.08949711 4.75654233,3.34149261 Z M16.5047032,5.50454712 C17.2363038,5.50454712 17.8788278,5.80157255 18.3907321,6.36330003 L18.6024489,6.59562315 L18.9090094,6.6650405 L19.3808817,6.76466692 L19.496,6.785 L19.0252478,7.72464385 L18.9229008,7.87539812 L18.7890162,8.08786923 C18.7690145,8.12204392 18.7499548,8.15606237 18.7315161,8.19061812 C18.5900383,8.4557586 18.5048796,8.71076453 18.5048796,9.00454712 L18.5048796,11.5045471 C18.5048796,16.2918338 13.61833,19.5004578 9.00390874,19.5004578 L8.72325501,19.4985821 C7.73571722,19.4851904 6.86028115,19.3995168 6.15408275,19.2232217 L5.872,19.144 L6.09487416,19.0901522 C8.45625642,18.4908005 10.0042621,17.3938657 10.0042621,16.0045471 L10.0042621,15.0045471 L9.00426213,15.0045471 L8.71964014,15.0026871 C7.04623189,14.9803959 5.98879018,14.7582507 5.4469196,14.3638922 L5.423,14.345 L5.55067888,14.3052204 C6.71037057,13.9136696 7.49292241,13.1061774 7.49292241,12.2502289 L7.49292241,11.5187753 L6.79583337,11.29721 C4.90406278,10.6959228 4.06460666,9.63485586 4.00501975,7.72830754 L4.0007792,7.29029388 L4.0005557,7.07198965 C4.00322546,6.44569183 4.03754356,6.06846664 4.14633028,5.7118632 L4.165,5.655 L4.35261261,5.84914472 C6.93057949,8.47395127 9.5777563,10.0045471 12.504468,10.0045471 C13.4099335,10.0045471 13.8502504,9.37418809 13.968662,8.589173 C13.9983366,8.39244357 14.0044974,8.24276105 14.0044974,8.00454712 C14.0044974,6.54693202 15.0417313,5.50454712 16.5047032,5.50454712 Z" id="icon" fill="#000000"></path>
    </g>
</svg>