<svg xmlns="http://www.w3.org/2000/svg" width="142" height="32" viewBox="0 0 142 32">
    <g fill="#000" fill-rule="evenodd" opacity=".8">
        <path fill-rule="nonzero" d="M59.298 18.368c.898 0 1.706.19 2.422.57.716.38 1.278.907 1.687 1.578.409.672.613 1.429.613 2.27 0 .842-.204 1.598-.613 2.27-.409.672-.971 1.198-1.687 1.578-.716.38-1.524.57-2.422.57-.898 0-1.705-.19-2.421-.57-.716-.38-1.279-.906-1.687-1.578-.41-.672-.613-1.428-.613-2.27 0-.841.204-1.598.613-2.27.408-.671.97-1.197 1.687-1.578.716-.38 1.523-.57 2.421-.57zm44.316 0c.558 0 1.108.063 1.65.188.543.126 1.02.31 1.433.552l-.74 1.785c-.81-.437-1.595-.656-2.355-.656-.478 0-.826.071-1.044.213-.219.141-.328.325-.328.552 0 .227.13.396.388.51.26.113.676.23 1.25.352.648.137 1.184.285 1.609.443.425.158.793.408 1.105.752.311.344.467.812.467 1.402 0 .51-.142.971-.425 1.384-.283.413-.708.742-1.274.99-.567.246-1.255.37-2.064.37-.688 0-1.355-.086-2.003-.255-.647-.17-1.173-.397-1.578-.68l.79-1.772c.38.25.82.453 1.322.607.502.153.996.23 1.481.23.923 0 1.384-.23 1.384-.692 0-.242-.132-.422-.395-.54-.263-.117-.685-.24-1.268-.37-.64-.138-1.173-.285-1.602-.443-.429-.158-.797-.41-1.105-.759-.307-.348-.461-.817-.461-1.408 0-.518.142-.985.425-1.402.283-.416.706-.746 1.268-.989.563-.243 1.253-.364 2.07-.364zm-54.609.17c.93 0 1.756.174 2.476.522.72.348 1.279.841 1.675 1.48.397.64.595 1.388.595 2.246 0 .858-.198 1.606-.595 2.246-.396.639-.954 1.133-1.675 1.48-.72.349-1.545.522-2.476.522h-4.017v-8.496h4.017zm18.256 0l2.986 4.904 2.913-4.904h1.978l.024 8.496h-2.209l-.024-4.503-2.185 3.666h-1.068l-2.173-3.544v4.381h-2.22v-8.496h1.978zm14.699 0l3.762 8.496h-2.5l-.668-1.65h-3.592l-.668 1.65h-2.452l3.75-8.496h2.368zm6.846 0v8.496h-2.404v-8.496h2.404zm3.69 0l3.75 4.527v-4.527h2.355v8.496h-1.979l-3.75-4.527v4.527h-2.355v-8.496h1.978zm-33.198 1.82c-.429 0-.817.102-1.165.304-.348.202-.623.488-.825.856-.203.368-.304.79-.304 1.268s.101.9.304 1.269c.202.368.477.653.825.855.348.203.736.304 1.165.304.43 0 .817-.101 1.165-.304.348-.202.624-.487.826-.855.202-.369.303-.791.303-1.269 0-.477-.1-.9-.303-1.268-.202-.368-.478-.654-.826-.856-.348-.202-.736-.303-1.165-.303zm-10.39.098h-1.517v4.66h1.517c.728 0 1.313-.206 1.754-.618.441-.413.662-.984.662-1.712s-.22-1.299-.662-1.711c-.44-.413-1.026-.62-1.754-.62zm31.85.437l-1.092 2.719h2.184l-1.092-2.72zM47.318 5.297v4.636c0 1.36.538 2.04 1.614 2.04 1.069 0 1.603-.68 1.603-2.04V5.297h2.367v4.71c0 1.261-.35 2.236-1.05 2.924-.7.688-1.682 1.032-2.944 1.032s-2.243-.344-2.943-1.032c-.7-.688-1.05-1.663-1.05-2.925v-4.71h2.403zm36.839-.17c.898 0 1.705.19 2.421.57.716.38 1.279.906 1.687 1.578.409.672.613 1.428.613 2.27 0 .841-.204 1.598-.613 2.27-.408.671-.97 1.197-1.687 1.578-.716.38-1.523.57-2.421.57-.899 0-1.706-.19-2.422-.57-.716-.38-1.278-.907-1.687-1.578-.409-.672-.613-1.429-.613-2.27 0-.842.204-1.598.613-2.27.409-.672.971-1.198 1.687-1.578.716-.38 1.523-.57 2.422-.57zm-16.532 0c.558 0 1.108.062 1.65.188.543.125 1.02.31 1.433.552l-.74 1.784c-.81-.437-1.595-.655-2.355-.655-.478 0-.826.07-1.044.212-.219.142-.328.326-.328.553 0 .226.13.396.389.51.258.113.675.23 1.25.351.647.138 1.183.286 1.608.443.425.158.793.409 1.105.753.311.344.467.811.467 1.402 0 .51-.142.97-.425 1.384-.283.412-.708.742-1.274.989-.567.247-1.255.37-2.064.37-.688 0-1.355-.085-2.003-.255-.647-.17-1.173-.396-1.578-.68l.79-1.772c.38.251.82.453 1.322.607.502.154.996.23 1.481.23.923 0 1.384-.23 1.384-.691 0-.243-.132-.423-.395-.54-.263-.118-.685-.24-1.268-.37-.64-.138-1.173-.286-1.602-.443-.429-.158-.797-.411-1.105-.76-.307-.347-.46-.816-.46-1.407 0-.518.14-.985.424-1.402.283-.417.706-.746 1.268-.99.563-.242 1.253-.363 2.07-.363zm11.349.17v1.905h-2.598v6.591h-2.403v-6.59h-2.61V5.296h7.61zm-22.468 0l3.751 4.527V5.297h2.355v8.496h-1.979l-3.75-4.527v4.527h-2.355V5.297h1.978zm37.519 0c.769 0 1.436.127 2.003.382.566.255 1.003.619 1.31 1.092.308.474.462 1.03.462 1.67 0 .639-.154 1.193-.462 1.662-.307.47-.744.832-1.31 1.087-.567.254-1.234.382-2.003.382h-1.481v2.221h-2.403V5.297h3.884zm19.105 0l3.763 8.496h-2.5l-.668-1.65h-3.593l-.668 1.65h-2.452l3.751-8.496h2.367zm8.788 0c1.084 0 1.91.2 2.476.6.566.4.85.941.85 1.62 0 .405-.1.768-.298 1.087-.198.32-.48.573-.843.759.485.17.865.435 1.14.795.276.36.413.795.413 1.305 0 .744-.3 1.319-.898 1.723-.599.405-1.465.607-2.597.607h-4.589V5.297h4.346zm7.392 0v6.59h4.054v1.906h-6.458V5.297h2.404zm11.664 0v1.857h-4.284v1.432h3.775v1.796h-3.775v1.554h4.442v1.857h-6.821V5.297h6.663zm-38.004 0c.77 0 1.437.127 2.003.382.567.255 1.004.619 1.311 1.092.308.474.461 1.03.461 1.67 0 .639-.153 1.193-.46 1.662-.308.47-.745.832-1.312 1.087-.566.254-1.234.382-2.003.382h-1.48v2.221h-2.404V5.297h3.884zm18.996 5.037h-2.015v1.723h2.015c.842 0 1.263-.287 1.263-.861 0-.575-.421-.862-1.263-.862zm-37.81-3.217c-.428 0-.817.101-1.165.304-.348.202-.623.487-.825.855-.202.369-.303.791-.303 1.269 0 .477.1.9.303 1.268.202.368.477.654.825.856.348.202.737.303 1.166.303.429 0 .817-.1 1.165-.303.348-.202.623-.488.825-.856.203-.368.304-.79.304-1.268s-.101-.9-.304-1.269c-.202-.368-.477-.653-.825-.855-.348-.203-.736-.304-1.165-.304zm27.772.534l-1.092 2.72h2.185l-1.093-2.72zm-18.049-.46h-1.335v2.487h1.335c.494 0 .866-.107 1.117-.321.25-.215.376-.52.376-.917 0-.396-.125-.704-.376-.922-.251-.219-.623-.328-1.117-.328zm8.946 0h-1.335v2.487h1.335c.493 0 .866-.107 1.117-.321.25-.215.376-.52.376-.917 0-.396-.126-.704-.376-.922-.251-.219-.624-.328-1.117-.328zm18.777-.159h-1.65v1.639h1.65c.81 0 1.214-.275 1.214-.825 0-.543-.405-.814-1.214-.814z"/>
        <g>
            <path d="M35.31 11.034L35.31 12.138 0 26.483zM35.31 8.828L35.31 9.931 0 26.483zM35.31 6.621L35.31 7.724 0 26.483zM35.31 4.414L35.31 5.517 0 26.483zM35.31 2.207L35.31 3.31 0 26.483zM35.31 0L35.31 1.103 0 26.483z" transform="translate(0 .552)"/>
        </g>
        <path d="M13.24 8.496l.001 12.47c0 2.132 1.73 3.862 3.862 3.862 2.133 0 3.863-1.73 3.863-3.862l-.001-16.718L28.69 0v20.966C28.69 27.06 23.75 32 17.655 32c-6.094 0-11.034-4.94-11.034-11.034v-8.828l6.62-3.642z"/>
    </g>
</svg>
