<?xml version="1.0" encoding="UTF-8"?>
<svg width="24px" height="24px" viewBox="0 0 24 24" version="1.1" xmlns="http://www.w3.org/2000/svg" xmlns:xlink="http://www.w3.org/1999/xlink">
    <title>24 / editing / user</title>
    <g id="24-/-editing-/-user" stroke="none" stroke-width="1" fill="none" fill-rule="evenodd">
        <rect id="evericons.com" x="0" y="0" width="24" height="24"></rect>
        <path d="M12,1 C18.0751322,1 23,5.92486775 23,12 C23,18.0751322 18.0751322,23 12,23 C5.92486775,23 1,18.0751322 1,12 C1,5.92486775 5.92486775,1 12,1 Z M12,17 C8.43085179,17 6.3282764,17.6872588 6.03537538,18.739557 C7.6239243,20.1464312 9.71228132,21 12,21 C14.2877187,21 16.3760757,20.1464312 17.96397,18.7403948 C17.6717236,17.6872588 15.5691482,17 12,17 Z M12,3 C7.02943725,3 3,7.02943725 3,12 C3,13.9044252 3.59150865,15.6706961 4.60082741,17.1251142 C5.72654778,15.6379201 8.37101117,15 12,15 C15.6289888,15 18.2734522,15.6379201 19.3991156,17.1241447 C20.4084913,15.6706961 21,13.9044252 21,12 C21,7.02943725 16.9705627,3 12,3 Z M12,6 C14.4141948,6 16,7.92157821 16,10.2 C16,13.479614 14.2180861,15 12,15 C9.76086382,15 8,13.4273743 8,10 C8,7.75575936 9.57909957,6 12,6 Z M12,8 C10.7337387,8 10,8.81582479 10,10 C10,12.2692568 10.8182108,13 12,13 C13.1777063,13 14,12.2983927 14,10.2 C14,8.95041736 13.2156568,8 12,8 Z" id="icon" fill="#000000"></path>
    </g>
</svg>